<svg fill="none" height="24" viewBox="0 0 24 24" width="24" xmlns="http://www.w3.org/2000/svg"><g clip-rule="evenodd" fill-rule="evenodd"><path d="m8.39758 12.4981c0-2.1511 1.74422-3.89526 3.89522-3.89526 2.1511 0 3.8953 1.74416 3.8953 3.89526s-1.7442 3.8953-3.8953 3.8953c-2.151 0-3.89522-1.7442-3.89522-3.8953zm3.89522-2.3953c-1.3226 0-2.39522 1.0727-2.39522 2.3953s1.07262 2.3953 2.39522 2.3953c1.3227 0 2.3953-1.0727 2.3953-2.3953s-1.0726-2.3953-2.3953-2.3953z" fill="#999"/><path d="m16.4545 9c0-.41421.3358-.75.75-.75h.009c.4142 0 .75.33579.75.75s-.3358.75-.75.75h-.009c-.4142 0-.75-.33579-.75-.75z" fill="#999"/><path d="m14.1095 2.36833c.5237.05022 1.0563.13294 1.417.28467l.0007.00027c.7361.31039 1.1592.95174 1.423 1.43031.0931.1689.1833.35101.2583.50248.0306.06181.0587.11853.0834.16716.1037.20393.1579.28547.1821.31189l.001.00115c.1443.15883.3284.26268.5017.31931 1.6709.46447 2.7566 1.27867 3.3727 2.56975.5828 1.22154.6963 2.78308.6963 4.61108 0 2.5888-.2155 4.8047-1.702 6.3037-1.4785 1.4908-4.0167 2.08-8.0511 2.08-4.03443 0-6.57265-.5892-8.0511-2.08-1.48657-1.499-1.70207-3.7149-1.70207-6.3037 0-1.828.11356-3.38954.69639-4.61108.61606-1.29119 1.70194-2.10543 3.37304-2.56987.17321-.05632.35647-.15981.50131-.31919l.00104-.00115c.02462-.02697.07995-.11019.1852-.31606.02532-.04952.05405-.10721.08534-.17002.07583-.15224.16664-.33455.26004-.50344.26314-.47581.68827-1.12435 1.42349-1.42534l.00091-.00037c.35274-.14386.8783-.22535 1.39951-.27612.5491-.05348 1.1871-.08057 1.8195-.08179.6323-.00121 1.2721.0234 1.8243.07636zm-4.47643 1.67031c-.2288.0939-.44248.33585-.67864.76288-.07772.14055-.14252.27081-.21109.40865-.03535.07107-.07171.14415-.11135.2217-.09787.19143-.23393.44812-.41219.6437-.35521.39067-.78604.6229-1.17161.7442-.00843.00265-.01691.00516-.02544.00751-1.37009.37835-2.04651.96367-2.43313 1.77397-.42165.88373-.55019 2.13225-.55019 3.96515 0 2.6345.26344 4.2354 1.26713 5.2475 1.01182 1.0202 2.97518 1.6362 6.98604 1.6362 4.0108 0 5.9742-.616 6.986-1.6362 1.0037-1.0121 1.2671-2.613 1.2671-5.2475 0-1.8329-.1285-3.08142-.5501-3.96515-.3867-.8103-1.0631-1.39562-2.4332-1.77397-.0088-.00242-.0175-.00501-.0262-.00775-.3832-.12101-.8152-.35281-1.1708-.7439-.1788-.19613-.3138-.45218-.4106-.6426-.0391-.07683-.0748-.14912-.1096-.21935-.0677-.13702-.1316-.2662-.2086-.40595-.2314-.4197-.4472-.66885-.692-.7722-.13-.05456-.4577-.12413-.9783-.17405-.4927-.04725-1.0822-.07066-1.6782-.06951-.5959.00115-1.1851.02682-1.677.07473-.5191.05056-.84787.11898-.97803.17194z" fill="#000"/></g></svg>